<svg xmlns="http://www.w3.org/2000/svg" xmlns:xlink="http://www.w3.org/1999/xlink" version="1.1" id="layer" x="0px" y="0px" style="enable-background:new -153 -46 652 652;" xml:space="preserve" viewBox="-108 24.68 556.08 499.92">
<style type="text/css">
	.st0{fill:#17A345;}
</style>
<path class="st0" d="M212.8,291.7l11.3-27.7l11.3,27.7C235.3,291.7,212.8,291.7,212.8,291.7z M367.7,316.6  c53.8-32.9,78.7-62,76.4-89.2c-1.2-28.2-31.1-62.5-80-92c-37-22.9-85.3-39-130-43.6c3.1,5.2,6.1,10.7,9.2,16.5  c19.5,36.8,37,77.7,47.5,110.8h51.4v112.2C350.9,326.6,359.3,321.7,367.7,316.6z M319.5,254.8c0.3-0.8,0.5-1.7,0.6-2.6  c0-3.4-2.8-6.2-6.2-6.2c-2.4,0-4.6,1.4-5.5,3.6L287,300.2l-21.1-50.7c-1-2.3-3.4-3.6-5.7-3.6c-3.4,0-6.1,3-6.1,6.3  c0,0.9,0.2,1.7,0.5,2.5l26.9,61.9c1,2.2,3.2,3.7,5.6,3.6c2.4,0,4.6-1.4,5.6-3.6L319.5,254.8L319.5,254.8z M299.1,390.4  c3.9-12.3,3.1-26.7-2.2-43.1h-42.1c0.6,4.7,0.7,9.2,0.1,13.4c-2.6,29-32.2,53.6-93.3,77.4c-37.5,14.4-87.1,29.5-126.3,35.7  c21.8,33.6,37.9,46.9,47.1,46.9c0.9,0,1.7-0.1,2.4-0.3c6.9-1.5,13.4-8,21.6-16.4c11.4-11.5,25.5-25.9,48.4-35.5  c13.1-5.5,27.9-10.1,43.6-15.1C242.5,439.6,288.1,425.3,299.1,390.4L299.1,390.4z M-0.1,410.3c12.1,24.6,23.2,44.4,33.2,60  c39-6,89.3-21.2,127.2-35.8c58.7-22.9,88.4-47.2,90.9-74.3c0.5-4.3,0.5-8.7-0.1-12.9H-19.1C-14.8,369.6-8.4,391.2-0.1,410.3  L-0.1,410.3z M9,472.9c6.1-0.3,12.9-1,20-2c-10.3-16.4-21.3-36.2-32.5-59c-8.5-19.6-15.1-41.8-19.4-64.6h-21.4V219.1h22.8  c3.5-16,8.2-30,14-41.6c-9.1-0.8-18.2-1.2-27.3-1.2c-28.1,0-45.9,4.8-48.8,13.1c-2.9,6.4-0.2,15.4,3.1,26.8  c4.6,15.9,10.4,35.6,6,60.2c-2.6,16.2-7.9,33.6-13.5,52c-12.7,41.8-25.9,85.1-5.4,113c15.6,21.2,49.1,31.5,102.3,31.5v1.9L9,472.9  L9,472.9z M-2,288.2h34.2v25.3c0,3.7,2.9,6.8,6.6,6.8c3.7,0,6.6-3.1,6.6-6.8c0,0,0,0,0,0v-60.8c0.1-3.7-2.9-6.7-6.6-6.8c0,0,0,0,0,0  c-3.7,0-6.6,3.1-6.6,6.7c0,0,0,0,0,0v23.1H-2v-23.1c0-3.7-2.8-6.8-6.5-6.8c-3.7,0-6.7,3-6.7,6.8v60.8c0,3.7,3,6.8,6.7,6.8  c3.7,0,6.5-3.1,6.5-6.8L-2,288.2L-2,288.2z M93.7,276.4H75.9v-17.3h32.5c3.5,0,6.3-2.7,6.3-6.2c0-3.5-2.8-6.1-6.3-6.1h-39  c-3.7,0-6.7,2.9-6.7,6.6c0,0,0,0,0,0v59.3c0,3.7,3,6.7,6.7,6.7H110c3.5,0,6.3-2.6,6.3-6.1c0-3.4-2.8-6.2-6.2-6.2c0,0,0,0-0.1,0H75.9  v-18.3h17.9c3.4,0,6.1-2.7,6.2-6c0,0,0,0,0-0.1C99.9,279.2,97.2,276.4,93.7,276.4C93.7,276.4,93.7,276.4,93.7,276.4z M-3.4,177.9  c-5.8,11.4-10.7,25.3-14.3,41.2h155.3c-26.6-15.2-55.6-27-83-33.2C33.2,182.1,13.9,179.5-3.4,177.9z M151.1,288.3  c13,3.5,17.2,6.2,17.2,11.5c0,4.9-4.1,9.2-14.5,9.2c-10.2,0-14.2-3.3-20.1-7c-1-0.6-2.2-1-3.4-1c-3.3,0-5.5,2.3-5.5,5.6  c0,2.4,1.5,4.6,3.7,6.3c6.3,4.9,16.2,7.6,25,7.6c18.4,0,27.9-8.9,27.9-21.6c0-13.9-10.5-18.2-25.3-22.6c-13-3.8-17.3-5.6-17.3-11  c0-5.7,5.9-8.3,15.5-8.3c6.8,0,12,2.3,17,4.6c0.8,0.4,1.7,0.6,2.6,0.5c3.7,0,5.4-3,5.4-6c0-4.4-6.3-7.5-11.3-9  c-4.5-1.2-9.2-1.9-13.8-1.9c-17.2,0-28.6,7.1-28.6,20.4C125.6,276.8,131.5,283.1,151.1,288.3z M22.8,147.7  c-9.2,5.1-17.4,14.2-24.3,26.5c17,1.6,35.9,4.2,56.9,7.9c29.8,6.7,61.4,19.9,89.8,37h49.5c-18.8-14.9-38.4-28.8-58.5-41.8  c-37.7-24.2-66.8-35.9-89-35.9c-3.2,0-6.4,0.3-9.3,0.8l-0.1,0.1l-0.2-0.1C32.4,143.1,27.4,145,22.8,147.7L22.8,147.7z M251.8,320.2  c3.4,0.1,6.2-2.6,6.3-6c0-1-0.2-1.9-0.6-2.8l-27.7-62c-1-2.3-2.8-3.5-5.6-3.5c-2.8,0-4.6,1.3-5.6,3.5l-27.7,62  c-1.5,3-0.2,6.7,2.8,8.2c0.9,0.4,1.8,0.6,2.8,0.6c2.8,0,4.3-1.4,5.5-3.6l6.2-13.3h32l6.2,13.3C247.4,318.9,249,320.2,251.8,320.2  L251.8,320.2z M59.9,103.8c-7.4,10.9-14.1,22.3-20,34.2c2.3-0.3,4.7-0.4,7.2-0.4c22.9,0,52.7,12,91,36.5c21.6,14,42.5,29,62.6,45  h86.1c-10.5-32.7-27.7-72.8-46.9-109c-29.6-55.8-57.1-82.4-84.3-81.6h-0.5C127.2,28.5,91.7,56.6,59.9,103.8z M447.9,227.1  c2.5,29.1-22.3,58.6-78.2,92.7c-9,5.5-18.2,10.8-27.4,15.9v11.6h-41.4c5.2,16.7,5.9,31.4,1.9,44.2c-11.6,36.8-58.2,51.4-103.2,65.6  c-15.6,4.9-30.3,9.5-43.2,15c-22.2,9.3-36.1,23.4-47.2,34.6c-8.7,8.8-15.5,15.7-23.4,17.4c-0.9,0.3-2.1,0.5-3.4,0.5  c-12.4,0-30.5-18-51.2-50.1c-7.9,1.2-15.4,2-22.2,2.3H8.7c-54.5,0-89-10.8-105.3-33.1c-21.6-29.4-8.2-73.6,4.8-116.4  c5.5-18.3,10.8-35.5,13.4-51.5c4.2-23.7-1.4-43-5.9-58.4c-3.6-12.2-6.4-21.9-3-29.3c3.5-10.1,21.6-15.5,52.4-15.5  c8.9,0,18.6,0.5,29.3,1.3c7.4-13.7,16.4-23.8,26.7-29.5c4.4-2.7,9.3-4.6,14.4-5.6c6.2-12.9,13.4-25.3,21.5-37.1  c32.6-48.6,69.7-77.4,98.9-77c25-0.8,50,19.9,76.1,63.1c46,4.2,96.1,20.7,134.4,44.4C416,162.2,446.6,197.8,447.9,227.1L447.9,227.1  z"/>
</svg>